# xmcd
#
# Track frame offsets:
#	150
#	12450
#	25652
#	36091
#	50399
#	65651
#	85867
#	96589
#	108403
#	121604
#	133885
#	150275
#	163619
#	174203
#	188898
#
# Disc length: 2762 seconds
# Revision: 0
# Processed by: cddbd v1.5.2PL0 Copyright (c) Steve Scherf et al.
# Submitted via: dBpowerAMP V12.0
#
DISCID=ba0ac80f
DTITLE=Art Stevenson and High Water - Dusty Boxcar Wall
DYEAR=1997
DGENRE=Country
TTITLE0=Bring Back My Blue Eyed Boy to Me
TTITLE1=Where They Do Not Know My Name
TTITLE2=Red Pine Breakdown
TTITLE3=Some Old Day
TTITLE4=Dusty Boxcar Wall
TTITLE5=Thinking About Moving Away
TTITLE6=Rise and Shine
TTITLE7=Walk the Waves With Jesus
TTITLE8=Saro Jane
TTITLE9=Joe Hill's Will
TTITLE10=Ice Covered Birches
TTITLE11=Tiptoe Up the Stairs
TTITLE12=Fare Thee Well
TTITLE13=On the Sunny Side of Life
TTITLE14=Orange Blossom Special
EXTD=
EXTT0=
EXTT1=
EXTT2=
EXTT3=
EXTT4=
EXTT5=
EXTT6=
EXTT7=
EXTT8=
EXTT9=
EXTT10=
EXTT11=
EXTT12=
EXTT13=
EXTT14=
PLAYORDER=
